<svg id="Layer_1" data-name="Layer 1" xmlns="http://www.w3.org/2000/svg" viewBox="0 0 195 70"><title>logo-black-green</title><rect x="-1.5" y="23.5" width="50" height="23" transform="translate(-11.5 58.5) rotate(-90)" style="fill:#039910;opacity:0.75"/><path d="M61.38,10H74.62V49H93.56V60.08H61.38Z" style="fill:#222629"/><path d="M97.19,10h14.16l7.55,20.48c.92,2.77,1.69,5.85,2.62,8.77h.31c.92-2.92,1.69-6,2.61-8.77L131.68,10h14.17v50h-12V45.3c0-5.08,1.08-12.86,1.69-17.86h-.31l-4.15,12L124.91,56h-7.09l-6.16-16.55-4-12h-.31c.62,5,1.69,12.78,1.69,17.86V60.08H97.19Z" style="fill:#222629"/><path d="M148.86,53.1l7.27-8.75c3.41,2.74,7.71,4.67,11.27,4.67,3.86,0,5.49-1.26,5.49-3.41s-2.44-3-6.52-4.68l-6-2.52c-5.2-2.08-9.72-6.45-9.72-13.42,0-8.24,7.42-15,18-15a23.24,23.24,0,0,1,16,6.45l-6.39,8C175,22.17,172.15,21,168.59,21c-3.11,0-5,1.11-5,3.26,0,2.3,2.74,3.12,7.12,4.83l5.86,2.29c6,2.38,9.42,6.53,9.42,13.21C186,52.73,179.13,60,167.11,60A27.93,27.93,0,0,1,148.86,53.1Z" style="fill:#222629"/><rect x="38.5" y="40.5" width="16" height="23" transform="translate(-5.5 98.5) rotate(-90)" style="fill:#7cb342"/><rect x="38.5" y="6.5" width="16" height="23" transform="translate(28.5 64.5) rotate(-90)" style="fill:#7cb342"/><rect x="38.5" y="23.5" width="16" height="23" transform="translate(11.5 81.5) rotate(-90)" style="fill:#7cb342"/><rect x="12" y="10" width="23" height="16" transform="translate(47 36) rotate(180)" style="fill:#039910"/><rect x="12" y="27" width="23" height="16" transform="translate(47 70) rotate(180)" style="fill:#039910"/><rect x="12" y="44" width="23" height="16" transform="translate(47 104) rotate(180)" style="fill:#039910"/></svg>