<svg id="Layer_1" data-name="Layer 1" xmlns="http://www.w3.org/2000/svg" viewBox="0 0 195 56.14"><title>logo-lg</title><path d="M55.35,7H70.2V50.64H91.43V63.07H55.35Z" transform="translate(0 -6.93)" style="fill:#275e01"/><path d="M95.5,7h15.88l8.46,23c1,3.1,1.89,6.56,2.93,9.84h.35c1-3.28,1.89-6.74,2.93-9.84l8.11-23h15.89v56.1H136.58V46.5c0-5.7,1.21-14.41,1.9-20h-.35l-4.66,13.46-6.9,18.56h-7.94l-6.91-18.56-4.49-13.46h-.34c.69,5.61,1.9,14.32,1.9,20V63.07H95.5Z" transform="translate(0 -6.93)" style="fill:#275e01"/><path d="M153.42,55.24l8.15-9.81c3.82,3.08,8.65,5.24,12.64,5.24,4.32,0,6.15-1.41,6.15-3.83,0-2.57-2.74-3.4-7.31-5.23l-6.74-2.83c-5.82-2.33-10.89-7.24-10.89-15,0-9.24,8.31-16.8,20.12-16.8a26,26,0,0,1,18,7.23l-7.15,9c-3.66-2.57-6.82-3.9-10.81-3.9-3.49,0-5.65,1.24-5.65,3.65,0,2.58,3.07,3.5,8,5.41l6.57,2.58C191.17,33.54,195,38.2,195,45.68c0,9.15-7.65,17.3-21.12,17.3A31.31,31.31,0,0,1,153.42,55.24Z" transform="translate(0 -6.93)" style="fill:#275e01"/><rect x="16.82" y="28.23" width="17.94" height="51.57" transform="translate(-28.23 72.87) rotate(-90)" style="fill:#399100;opacity:0.6000000000000001"/><rect x="16.82" y="-9.89" width="17.94" height="51.57" transform="translate(9.89 34.75) rotate(-90)" style="fill:#399100;opacity:0.6000000000000001"/><rect x="16.82" y="9.17" width="17.94" height="51.57" transform="translate(-9.17 53.81) rotate(-90)" style="fill:#399100;opacity:0.6000000000000001"/><rect y="6.93" width="25.78" height="56.05" transform="translate(25.78 62.98) rotate(180)" style="fill:#275e01;opacity:0.75"/></svg>