<?xml version="1.0" encoding="UTF-8" ?>
<!--suppress HtmlDeprecatedAttribute -->
<svg width="128pt" height="128pt" viewBox="0 0 128 128" version="1.1" xmlns="http://www.w3.org/2000/svg">
    <g id="#2d74ffff">
        <path class="primary-color" opacity="1.00"
              d=" M 62.20 8.08 C 63.93 6.90 65.80 9.31 64.83 10.97 C 63.20 17.24 61.61 23.53 59.75 29.73 C 59.33 31.94 55.58 31.27 56.03 29.04 C 57.24 23.10 59.16 17.32 60.58 11.42 C 61.06 10.31 60.99 8.70 62.20 8.08 Z" />
        <path class="primary-color" opacity="1.00"
              d=" M 43.65 16.86 C 44.53 16.68 45.86 16.94 45.98 18.05 C 47.29 21.98 48.33 26.00 49.21 30.05 C 49.97 32.37 45.90 33.23 45.49 30.88 C 44.28 26.60 42.74 22.32 42.31 17.88 C 42.64 17.63 43.31 17.12 43.65 16.86 Z" />
        <path class="primary-color" opacity="1.00"
              d=" M 22.00 19.03 C 23.61 17.46 25.27 19.54 26.42 20.61 C 30.54 24.88 34.92 28.91 38.94 33.27 C 40.91 34.92 37.83 37.97 36.21 35.97 C 31.70 31.75 27.46 27.25 23.05 22.93 C 21.99 21.99 20.61 20.33 22.00 19.03 Z" />
        <path class="primary-color" opacity="1.00"
              d=" M 113.57 98.18 C 116.02 101.51 117.45 105.97 115.58 109.93 C 113.66 114.79 108.07 117.11 103.10 116.18 C 108.46 111.48 112.02 105.11 113.57 98.18 Z" />
    </g>
    <g id="#738babff">
        <path class="secondary-color" opacity="1.00"
              d=" M 55.58 39.57 C 57.81 38.41 60.10 37.36 62.32 36.17 C 67.57 37.16 72.82 38.84 77.14 42.10 C 75.82 43.43 74.32 42.36 73.03 41.82 C 69.74 40.16 66.23 38.97 62.62 38.24 C 60.84 39.18 59.03 40.05 57.26 41.01 C 57.13 41.72 56.88 43.15 56.76 43.86 C 61.22 46.33 65.94 48.61 68.88 52.98 C 71.98 52.51 75.44 49.92 78.39 51.98 C 75.17 53.60 71.60 54.31 68.12 55.14 C 66.76 53.62 65.39 52.11 64.01 50.59 C 62.17 51.35 60.33 52.10 58.48 52.82 C 62.15 52.95 63.98 56.19 65.06 59.27 C 62.66 59.46 61.82 57.01 60.61 55.44 C 59.01 55.10 57.42 54.77 55.81 54.47 C 55.89 57.23 56.35 59.95 57.12 62.60 C 59.65 64.37 63.68 65.00 64.47 68.44 C 61.17 67.51 58.33 65.53 55.42 63.80 C 54.97 62.14 54.51 60.47 54.06 58.80 C 52.22 58.90 50.39 59.02 48.56 59.16 C 48.48 60.45 48.41 61.75 48.34 63.05 C 46.38 64.73 44.71 67.01 42.21 67.89 L 41.40 66.96 C 42.85 65.12 44.72 63.68 46.47 62.15 C 46.73 59.70 46.21 57.31 44.93 55.19 C 43.07 55.64 41.27 56.83 39.33 56.74 C 36.68 55.50 34.04 54.09 31.79 52.19 L 31.91 50.93 C 34.88 51.48 37.26 53.51 39.88 54.89 C 41.41 54.19 43.23 53.90 44.50 52.73 C 45.44 50.51 46.18 48.20 46.95 45.91 C 42.70 46.61 38.69 45.21 34.91 43.43 C 28.15 47.80 22.54 54.04 19.52 61.56 C 14.87 72.40 15.67 85.32 21.44 95.58 C 26.88 105.47 36.85 112.70 47.94 114.84 C 57.42 116.72 67.57 114.90 75.80 109.84 C 84.38 104.65 90.76 96.00 93.23 86.29 C 96.20 74.82 93.59 62.04 86.29 52.70 C 84.29 49.91 81.24 47.98 79.66 44.89 C 81.09 45.05 82.51 45.53 83.48 46.65 C 89.37 52.20 93.63 59.50 95.36 67.43 C 96.61 75.28 100.93 82.98 107.84 87.18 C 109.94 88.47 112.23 90.20 112.27 92.93 C 112.15 102.70 106.70 112.22 98.43 117.38 C 95.90 119.07 92.91 117.82 90.54 116.48 C 87.63 114.84 84.27 114.40 81.19 113.19 L 81.86 111.87 C 87.07 111.63 91.19 115.55 96.06 116.19 C 104.42 112.25 109.62 102.98 110.28 93.93 C 110.78 90.97 107.76 89.60 105.79 88.19 C 101.51 85.43 98.24 81.28 96.33 76.58 C 96.66 88.97 90.52 101.18 80.82 108.78 C 73.01 114.97 62.88 118.12 52.93 117.49 C 40.89 116.81 29.33 110.44 22.30 100.64 C 15.14 90.84 12.67 77.76 15.88 66.04 C 18.61 55.92 25.26 46.68 34.45 41.51 C 37.36 41.58 39.96 43.95 42.98 43.97 C 45.16 44.01 47.35 43.87 49.53 43.84 C 48.69 47.25 47.44 50.54 46.39 53.89 C 46.99 54.97 47.59 56.05 48.18 57.13 C 50.09 57.04 51.99 56.93 53.89 56.80 C 53.95 55.36 54.01 53.93 54.06 52.49 C 56.77 51.51 59.40 50.34 62.05 49.24 C 59.59 47.76 57.08 46.37 54.60 44.93 C 54.87 43.13 55.20 41.35 55.58 39.57 Z" />
    </g>
</svg>
